<?xml version="1.0" standalone="no"?>
<!DOCTYPE svg PUBLIC "-//W3C//DTD SVG 20010904//EN"
 "http://www.w3.org/TR/2001/REC-SVG-20010904/DTD/svg10.dtd">
<svg version="1.0" xmlns="http://www.w3.org/2000/svg"
 width="384.000000pt" height="384.000000pt" viewBox="0 0 384.000000 384.000000"
 preserveAspectRatio="xMidYMid meet">
<metadata>
Created by potrace 1.14, written by Peter Selinger 2001-2017
</metadata>
<g transform="translate(0.000000,384.000000) scale(0.100000,-0.100000)"
fill="#000000" stroke="none">
<path d="M1785 3701 c-3 -10 6 -48 19 -83 28 -70 52 -170 50 -208 -7 -134 -20
-259 -27 -266 -3 -3 -56 9 -117 26 -120 34 -130 33 -124 -18 4 -36 23 -69 52
-88 29 -19 290 -97 301 -90 4 3 11 36 14 73 4 37 9 86 11 108 22 204 24 302 6
374 -7 29 -10 55 -7 58 6 5 46 7 85 4 10 -1 11 -12 6 -43 -8 -43 -9 -192 -4
-454 l2 -141 86 -26 c48 -14 203 -58 345 -98 141 -40 257 -75 257 -79 0 -9
-92 -61 -119 -66 -14 -3 -96 13 -183 35 -143 37 -1120 315 -1317 375 -46 14
-87 23 -92 21 -4 -3 -11 -26 -15 -51 -5 -38 -3 -49 12 -65 18 -18 227 -81 886
-269 673 -192 715 -200 813 -145 97 54 288 201 287 220 -1 4 -186 61 -412 125
-226 65 -413 119 -415 122 -2 2 -6 99 -9 215 -4 214 4 296 37 375 14 34 12 58
-7 70 -6 4 -102 8 -213 8 -189 0 -202 -1 -208 -19z"/>
<path d="M740 2891 c0 -57 35 -103 95 -123 40 -13 266 -75 345 -94 8 -2 159
-42 335 -90 176 -47 327 -87 335 -89 12 -2 56 -14 115 -31 28 -8 202 -55 218
-59 33 -8 36 -15 16 -59 -31 -71 -46 -166 -47 -301 -2 -149 11 -196 89 -342
51 -96 58 -122 37 -145 -7 -7 -42 -47 -78 -88 -35 -41 -82 -93 -102 -115 -21
-22 -38 -44 -38 -48 0 -4 -36 33 -80 83 -44 50 -92 103 -106 118 -13 15 -27
36 -30 47 -3 11 11 65 31 120 56 152 63 175 79 246 18 76 14 181 -8 254 -9 28
-16 51 -16 52 0 1 6 0 14 -3 24 -9 85 24 105 57 11 18 19 35 17 37 -2 1 -95
28 -207 58 -538 146 -792 214 -797 214 -2 0 -2 -21 1 -46 9 -83 28 -94 302
-169 132 -37 247 -68 255 -70 61 -13 79 -20 113 -43 90 -61 126 -204 87 -347
-11 -38 -42 -128 -70 -200 -27 -71 -52 -144 -56 -160 -6 -31 5 -46 130 -185
17 -19 76 -86 131 -148 l100 -113 40 44 c22 24 65 72 95 107 30 34 63 72 73
84 11 12 40 45 65 75 26 30 52 59 57 65 41 45 65 80 65 97 0 11 -22 57 -48
102 -26 45 -63 114 -82 152 l-35 70 0 145 c1 227 33 304 130 315 28 3 64 7 80
10 36 5 165 18 183 18 6 0 12 4 12 9 0 4 -7 8 -15 8 -8 0 -79 18 -157 39 -79
22 -231 63 -338 91 -107 29 -260 70 -340 92 -255 69 -475 128 -815 218 -60 17
-149 41 -197 54 l-88 24 0 -37z"/>
<path d="M2059 803 c0 -15 0 -56 1 -90 2 -70 7 -65 -82 -66 l-38 0 0 -73 0
-74 61 0 60 0 -1 -102 c-1 -57 -1 -143 -1 -191 l1 -88 72 3 72 3 -1 188 0 187
58 0 58 0 3 33 c2 17 1 51 0 74 l-4 41 -54 -2 c-64 -2 -64 -2 -61 109 l1 70
-72 3 -72 3 -1 -28z"/>
<path d="M1097 773 c-2 -4 -24 -44 -47 -88 -23 -44 -53 -98 -65 -120 -12 -22
-44 -80 -70 -130 -26 -49 -74 -138 -106 -197 -33 -59 -59 -109 -59 -113 0 -3
41 -4 91 -3 l91 3 22 40 23 40 126 3 127 3 22 -46 22 -45 94 0 93 0 -59 113
c-115 216 -290 539 -295 544 -3 2 -7 1 -10 -4z m63 -434 c0 -7 -99 -3 -106 4
-3 3 7 28 22 56 l29 51 27 -53 c15 -28 27 -55 28 -58z"/>
<path d="M2382 449 l0 -329 78 0 c66 0 78 3 82 18 2 9 3 90 2 180 -1 187 -11
177 105 102 42 -27 80 -50 84 -51 5 -1 51 26 103 59 l94 61 0 -184 0 -185 80
0 80 0 0 331 c0 261 -3 329 -12 323 -7 -4 -83 -52 -168 -107 -85 -55 -160
-101 -166 -104 -11 -4 -79 37 -259 157 -39 25 -78 49 -87 52 -14 6 -16 -26
-16 -323z"/>
<path d="M1600 635 c-59 -18 -97 -43 -133 -87 -84 -105 -78 -255 15 -350 50
-52 94 -71 175 -76 60 -4 79 -1 120 19 135 65 191 212 133 347 -50 117 -191
184 -310 147z m141 -148 c67 -45 76 -141 17 -197 -41 -39 -88 -48 -139 -24
-44 19 -79 73 -79 119 0 97 119 158 201 102z"/>
</g>
</svg>
